<svg width="58" height="58" viewBox="0 0 58 58" fill="none" xmlns="http://www.w3.org/2000/svg">
<path d="M22.488 47H29C31.21 47 33 45.21 33 43V43C33 40.79 31.21 39 29 39H20.148C19.424 39 18.718 38.808 18.098 38.434C16.272 37.33 12.054 35 9 35C5 35 1 39 1 39V57H29.756C31.88 57 33.968 56.436 35.802 55.366L57 43V43C57 40.146 54.096 38.21 51.462 39.308L33 47H17" stroke="#00B6FF" stroke-width="2" stroke-linecap="round" stroke-linejoin="round"/>
<path fill-rule="evenodd" clip-rule="evenodd" d="M45 11H35V1H23V11H13V23H23V33H35V23H45V11Z" stroke="#00B6FF" stroke-width="2" stroke-linecap="round" stroke-linejoin="round"/>
</svg>
