<svg width="46" height="46" viewBox="0 0 46 46" fill="none" xmlns="http://www.w3.org/2000/svg">
<path fill-rule="evenodd" clip-rule="evenodd" d="M23 46C35.7025 46 46 35.7025 46 23C46 10.2975 35.7025 0 23 0C10.2975 0 0 10.2975 0 23C0 35.7025 10.2975 46 23 46Z" fill="#62BB65"/>
<mask id="mask0_6133_552" style="mask-type:luminance" maskUnits="userSpaceOnUse" x="0" y="0" width="46" height="46">
<path fill-rule="evenodd" clip-rule="evenodd" d="M23 46C35.7025 46 46 35.7025 46 23C46 10.2975 35.7025 0 23 0C10.2975 0 0 10.2975 0 23C0 35.7025 10.2975 46 23 46Z" fill="white"/>
</mask>
<g mask="url(#mask0_6133_552)">
<rect width="50" height="50" fill="#00B6FF"/>
</g>
<path fill-rule="evenodd" clip-rule="evenodd" d="M23 31C26 31 26 37 29 37C31 37 32 34 32 31C32 28 36 23 37 18C38 13 35 9 32 9C27 9 26 11 23 11C20 11 19 9 14 9C11 9 8 13 9 18C10 23 14 28 14 31C14 34 15 37 17 37C20 37 20 31 23 31Z" stroke="white" stroke-width="2.3333" stroke-linecap="round" stroke-linejoin="round"/>
<path d="M19.734 10.197C22 11 26 13 29 13" stroke="white" stroke-width="2.3333" stroke-linecap="round" stroke-linejoin="round"/>
<path d="M14 13C14 13 13 14 13 16C13 17 15 22 15 22" stroke="white" stroke-width="2.3333" stroke-linecap="round" stroke-linejoin="round"/>
</svg>
