<svg width="74" height="64" viewBox="0 0 74 64" fill="none" xmlns="http://www.w3.org/2000/svg">
<path fill-rule="evenodd" clip-rule="evenodd" d="M36.9305 48C43.7645 48 43.7645 60 50.5985 60C55.1545 60 57.4324 54 57.4324 48C57.4324 42 66.5444 32 68.8224 22C71.1004 12 64.2664 4 57.4324 4C46.0425 4 43.7645 8 36.9305 8C30.0965 8 27.8186 4 16.4286 4C9.59461 4 2.76064 12 5.03863 22C7.31662 32 16.4286 42 16.4286 48C16.4286 54 18.7066 60 23.2626 60C30.0965 60 30.0965 48 36.9305 48Z" stroke="#00B6FF" stroke-width="2.3333" stroke-linecap="round" stroke-linejoin="round"/>
<path d="M29.4906 6.39404C34.6525 8.00004 43.7645 12 50.5985 12" stroke="#00B6FF" stroke-width="2.3333" stroke-linecap="round" stroke-linejoin="round"/>
<path d="M16.4286 12C16.4286 12 14.1506 14 14.1506 18C14.1506 20 18.7066 30 18.7066 30" stroke="#00B6FF" stroke-width="2.3333" stroke-linecap="round" stroke-linejoin="round"/>
</svg>
